<?xml version="1.0" encoding="UTF-8"?>
<svg width="22px" height="22px" viewBox="0 0 22 22" version="1.1" xmlns="http://www.w3.org/2000/svg" xmlns:xlink="http://www.w3.org/1999/xlink">
    <!-- Generator: Sketch 51.3 (57544) - http://www.bohemiancoding.com/sketch -->
    <title>slash</title>
    <desc>Created with Sketch.</desc>
    <defs>
        <path d="M4.96810063,6.38231419 C3.73647287,7.92198502 3,9.87498629 3,12 C3,16.9705627 7.02943725,21 12,21 C14.1250137,21 16.078015,20.2635271 17.6176858,19.0318994 L4.96810063,6.38231419 Z M6.38231419,4.96810063 L19.0318994,17.6176858 C20.2635271,16.078015 21,14.1250137 21,12 C21,7.02943725 16.9705627,3 12,3 C9.87498629,3 7.92198502,3.73647287 6.38231419,4.96810063 Z M12,23 C5.92486775,23 1,18.0751322 1,12 C1,5.92486775 5.92486775,1 12,1 C18.0751322,1 23,5.92486775 23,12 C23,18.0751322 18.0751322,23 12,23 Z" id="path-1"></path>
    </defs>
    <g id="🕹-Icons" stroke="none" stroke-width="1" fill="none" fill-rule="evenodd">
        <g id="Feather" transform="translate(-542.000000, -84.000000)">
            <g id="slash" transform="translate(541.000000, 83.000000)">
                <mask id="mask-2" fill="white">
                    <use xlink:href="#path-1"></use>
                </mask>
                <use id="Combined-Shape" fill="#000000" fill-rule="nonzero" xlink:href="#path-1"></use>
                <g id="COLOR/-black" mask="url(#mask-2)" fill="#000000" fill-rule="evenodd">
                    <rect id="Rectangle" x="0" y="0" width="24" height="24"></rect>
                </g>
            </g>
        </g>
    </g>
</svg>