<svg id="Layer_1" enable-background="new 0 0 512 512" height="512" viewBox="0 0 512 512" width="512" xmlns="http://www.w3.org/2000/svg"><path d="m512 311.937v-125.518c0-12.952-10.538-23.49-23.49-23.49h-27.429v-133.72c0-8.284-6.716-15-15-15h-380.163c-8.284 0-15 6.716-15 15v133.72h-27.429c-12.952 0-23.489 10.538-23.489 23.49v125.56.099 162.223c0 6.941 3.049 13.494 8.366 17.977.029.025.06.05.089.075 4.225 3.506 9.563 5.438 15.034 5.438h465.021c5.503 0 10.861-1.948 15.098-5.492 5.334-4.47 8.393-11.03 8.393-17.998v-162.263c0-.034-.001-.067-.001-.101zm-482 24.906 99.579 52.832-99.579 65.334zm271.699-200.418h-79.975c-4.333 0-8.454 1.874-11.303 5.138l-4.942 5.665c2.137-25.292 23.405-45.22 49.239-45.22h94.07c-6.364 19.938-25.067 34.417-47.089 34.417zm-73.155 30h73.155c1.646 0 3.275-.067 4.896-.166l-.002 42.911c.062 12.451-2.413 22.118-8.026 31.345-5.452 8.964-13.904 17.538-27.404 27.801-4.385 3.334-9.646 5.096-15.214 5.096-5.567 0-10.828-1.762-15.214-5.096-13.5-10.263-21.952-18.837-27.405-27.801-5.613-9.227-8.088-18.908-8.025-31.465v-15.99zm.175 129.802c8.249 4.662 17.688 7.185 27.229 7.185 9.542 0 18.98-2.523 27.23-7.185 17.534 3.784 50.249 11.056 60.466 14.281 9.526 3.007 19.706 10.485 19.706 22.455v33.225l-9.007 4.804-79.115-52.045c-11.459-7.555-26.291-7.572-37.791-.037l-79.239 51.988-9.655-5.123v-32.813c0-11.97 10.18-19.448 19.706-22.455 10.214-3.223 42.934-10.496 60.47-14.28zm-61.345 104.532c.045-.03.092-.059.137-.09l86.376-56.671c1.474-.966 3.37-.967 4.842.004l86.322 56.786c.044.03.09.059.135.089l101.716 66.914h-381.696zm215.511-10.991 99.115-52.872v118.074zm99.115-196.839v109.966l-20.919 11.159v-121.125zm-50.919-148.72v285.848l-37.731 20.127v-17.222c0-23.221-15.967-43.265-40.677-51.064-7.802-2.463-25.105-6.535-40.48-9.998 4.78-5.188 8.709-10.376 12.005-15.795 8.429-13.858 12.483-29.259 12.396-47.01l.002-50.769c26.342-12.941 44.521-40.043 44.521-71.319 0-8.284-6.716-15-15-15h-111.398c-43.79 0-79.416 35.626-79.416 79.417v23.957c0 .006.001.012.001.019v33.574c-.091 18.106 3.849 33.083 12.396 47.132 3.296 5.418 7.225 10.607 12.004 15.795-15.377 3.462-32.682 7.536-40.484 9.998-24.71 7.799-40.677 27.843-40.677 51.064v16.896l-37.625-19.962v-285.688zm-380.163 148.72v121.051l-20.918-11.098v-109.953z"/></svg>