<svg id="like_1_" data-name="like (1)" xmlns="http://www.w3.org/2000/svg" width="17.64" height="20.579" viewBox="0 0 17.64 20.579">
  <path id="Combined_Shape" data-name="Combined Shape" d="M.588,20.579a.6.6,0,0,1-.588-.6V9.124a.6.6,0,0,1,.588-.6H2.94A1.789,1.789,0,0,1,4.7,10.33v8.441A1.788,1.788,0,0,1,2.94,20.579Zm1.764-3.014a.588.588,0,1,0,.589-.6A.6.6,0,0,0,2.352,17.565Zm7.421,1.809a5.722,5.722,0,0,1-1.858-.314L5.88,18.368V9.644c2.3-.54,3.2-3.2,3.787-5.528a.611.611,0,0,1,.564-.458h.353a1.792,1.792,0,0,1,1.764,1.809,10.756,10.756,0,0,1-.706,4.261h4.821a1.206,1.206,0,0,1,0,2.412,1.206,1.206,0,0,1,0,2.411,1.206,1.206,0,0,1,0,2.412H15.288a1.206,1.206,0,0,1,0,2.412ZM13.079,3.511a.614.614,0,0,1,0-.852l.832-.852a.577.577,0,0,1,.832,0,.614.614,0,0,1,0,.852l-.832.852a.577.577,0,0,1-.832,0Zm-5.821,0-.832-.852a.614.614,0,0,1,0-.852.577.577,0,0,1,.832,0l.832.852a.614.614,0,0,1,0,.852.577.577,0,0,1-.832,0ZM10,1.849V.6a.588.588,0,1,1,1.175,0V1.849a.588.588,0,1,1-1.175,0Z" transform="translate(0 0)"/>
</svg>
