<svg xmlns="http://www.w3.org/2000/svg" width="20" height="12.414" viewBox="0 0 20 12.414">
  <g id="Private_Icon" data-name="Private Icon" transform="translate(0 0)">
    <g id="incognito" transform="translate(0 0)">
      <path id="Shape" d="M10,12.414a2.457,2.457,0,0,1-1.513-.6,7.271,7.271,0,0,0-3.134-1.289C.555,9.464,0,4.719,0,1.242A1.252,1.252,0,0,1,1.25,0a1.248,1.248,0,0,1,.884.364,5.373,5.373,0,0,0,3.491.878A5.39,5.39,0,0,1,9.447,3.153l0,0a6.6,6.6,0,0,0,.6.542c.156-.1.564-.417.833-.628l0,0A6.724,6.724,0,0,1,15,1.242c1.983,0,2.472-.487,2.866-.878A1.251,1.251,0,0,1,20,1.242c0,3.477-.555,8.222-5.353,9.281a7.285,7.285,0,0,0-3.132,1.289A2.461,2.461,0,0,1,10,12.414Zm5.049-7.448a4.582,4.582,0,0,0-2.965.835,2.629,2.629,0,0,0-.834,2.269c2.584,0,3.805-.823,4.375-1.512a2.622,2.622,0,0,0,.625-1.512A8.836,8.836,0,0,0,15.049,4.966Zm-10.1,0a8.843,8.843,0,0,0-1.2.079,2.652,2.652,0,0,0,.625,1.512c.57.69,1.792,1.512,4.375,1.512A2.629,2.629,0,0,0,7.917,5.8,4.583,4.583,0,0,0,4.951,4.966Z"/>
    </g>
  </g>
</svg>
