<?xml version="1.0" encoding="UTF-8" standalone="no"?>
<!DOCTYPE svg PUBLIC "-//W3C//DTD SVG 1.1//EN" "http://www.w3.org/Graphics/SVG/1.1/DTD/svg11.dtd">
<svg width="100%" height="100%" viewBox="0 0 24 24" version="1.1" xmlns="http://www.w3.org/2000/svg" xmlns:xlink="http://www.w3.org/1999/xlink" xml:space="preserve" xmlns:serif="http://www.serif.com/" style="fill-rule:evenodd;clip-rule:evenodd;stroke-linejoin:round;stroke-miterlimit:1.41421;">
    <g id="settings">
        <path d="M13.003,2.153C13.91,2.153 14.647,2.89 14.647,3.798L14.647,12.256C14.647,13.163 13.91,13.9 13.003,13.9L4.498,13.9C3.591,13.9 2.854,13.163 2.854,12.256L2.854,3.798C2.854,2.89 3.591,2.153 4.498,2.153L13.003,2.153ZM13.079,2.898L4.422,2.898C3.969,2.898 3.601,3.266 3.601,3.719L3.601,12.335C3.601,12.788 3.969,13.155 4.422,13.155L13.079,13.155C13.532,13.155 13.9,12.788 13.9,12.335L13.9,3.719C13.9,3.266 13.532,2.898 13.079,2.898Z"/>
        <path d="M11.353,4.096C11.988,4.096 12.503,4.611 12.503,5.246L12.503,10.614C12.503,11.249 11.988,11.764 11.353,11.764L5.954,11.764C5.32,11.764 4.804,11.249 4.804,10.614L4.804,5.246C4.804,4.611 5.32,4.096 5.954,4.096L11.353,4.096ZM11.41,4.812L5.897,4.812C5.69,4.812 5.523,4.979 5.523,5.186L5.523,10.675C5.523,10.881 5.69,11.049 5.897,11.049L11.41,11.049C11.617,11.049 11.785,10.881 11.785,10.675L11.785,5.186C11.785,4.979 11.617,4.812 11.41,4.812Z"/>
        <path d="M21.555,14.373C22.38,14.373 23.05,15.043 23.05,15.868L23.05,20.353C23.05,21.178 22.38,21.848 21.555,21.848L2.389,21.848C1.563,21.848 0.894,21.178 0.894,20.353L0.894,15.868C0.894,15.043 1.563,14.373 2.389,14.373L21.555,14.373ZM21.536,15.128L2.408,15.128C2.011,15.128 1.689,15.45 1.689,15.847L1.689,20.398C1.689,20.795 2.011,21.117 2.408,21.117L21.536,21.117C21.932,21.117 22.254,20.795 22.254,20.398L22.254,15.847C22.254,15.45 21.932,15.128 21.536,15.128Z"/>
        <path d="M21.727,8.153C22.589,8.153 23.288,8.852 23.288,9.713L23.288,11.627C23.288,12.488 22.588,13.188 21.727,13.188L17.402,13.188C16.541,13.188 15.841,12.488 15.841,11.627L15.841,9.713C15.841,8.852 16.541,8.153 17.402,8.153L21.727,8.153ZM21.751,8.886L17.378,8.886C16.923,8.886 16.553,9.255 16.553,9.711L16.553,11.649C16.553,12.104 16.923,12.474 17.378,12.474L21.751,12.474C22.206,12.474 22.576,12.104 22.576,11.649L22.576,9.711C22.576,9.255 22.206,8.886 21.751,8.886Z"/>
        <rect x="17.3" y="9.838" width="4.318" height="0.474"/>
        <rect x="17.3" y="11.068" width="2.847" height="0.436"/>
        <rect x="20.428" y="13.188" width="0.707" height="1.185"/>
        <g transform="matrix(1,0,0,1,-2.411,0)">
            <rect x="20.428" y="13.188" width="0.707" height="1.185"/>
        </g>
        <rect x="3.35" y="18.717" width="17.555" height="1.047"/>
        <g transform="matrix(1,0,0,1,-0.0486958,0)">
            <circle cx="4.276" cy="16.94" r="0.682"/>
        </g>
    </g>
</svg>
